<svg xmlns="http://www.w3.org/2000/svg" width="60" height="60.086" viewBox="0 0 60 60.086">
  <g id="deep-eye" transform="translate(-0.356)">
    <path id="Path_108" data-name="Path 108" d="M223.309,3.79A3.79,3.79,0,1,0,218.8,7.51v5.059a.721.721,0,1,0,1.442,0V7.51A3.8,3.8,0,0,0,223.309,3.79Zm-3.79,2.348a2.348,2.348,0,1,1,2.348-2.348A2.351,2.351,0,0,1,219.519,6.138Z" transform="translate(-189.491)" fill="#04aa6d"/>
    <circle id="Ellipse_9" data-name="Ellipse 9" cx="0.857" cy="0.857" r="0.857" transform="translate(29.17 14.655)" fill="#04aa6d"/>
    <path id="Path_109" data-name="Path 109" d="M220.24,395.186v-5.059a.721.721,0,1,0-1.442,0v5.059a3.79,3.79,0,1,0,1.442,0Zm-.721,6.068a2.348,2.348,0,1,1,2.348-2.348A2.351,2.351,0,0,1,219.519,401.254Z" transform="translate(-189.491 -342.611)" fill="#04aa6d"/>
    <circle id="Ellipse_10" data-name="Ellipse 10" cx="0.857" cy="0.857" r="0.857" transform="translate(29.17 43.716)" fill="#04aa6d"/>
    <circle id="Ellipse_11" data-name="Ellipse 11" cx="0.857" cy="0.857" r="0.857" transform="translate(29.17 43.716)" fill="#04aa6d"/>
    <circle id="Ellipse_12" data-name="Ellipse 12" cx="0.857" cy="0.857" r="0.857" transform="translate(47.012 35.707)" fill="#04aa6d"/>
    <path id="Path_110" data-name="Path 110" d="M397.932,314.883a3.8,3.8,0,0,0-3.72,3.069h-4.423v-1.268a.721.721,0,1,0-1.442,0v1.989a.721.721,0,0,0,.721.721h5.144a3.79,3.79,0,1,0,3.72-4.511Zm0,6.138a2.348,2.348,0,1,1,2.348-2.348A2.351,2.351,0,0,1,397.932,321.021Z" transform="translate(-341.366 -277.043)" fill="#04aa6d"/>
    <circle id="Ellipse_13" data-name="Ellipse 13" cx="0.857" cy="0.857" r="0.857" transform="translate(47.012 22.65)" fill="#04aa6d"/>
    <path id="Path_111" data-name="Path 111" d="M397.932,121.927a3.8,3.8,0,0,0-3.72,3.069h-5.144a.721.721,0,0,0-.721.721v1.989a.721.721,0,0,0,1.442,0v-1.268h4.423a3.79,3.79,0,1,0,3.72-4.511Zm0,6.138a2.348,2.348,0,1,1,2.348-2.348A2.351,2.351,0,0,1,397.932,128.065Z" transform="translate(-341.366 -107.275)" fill="#04aa6d"/>
    <circle id="Ellipse_14" data-name="Ellipse 14" cx="0.857" cy="0.857" r="0.857" transform="translate(11.985 35.707)" fill="#04aa6d"/>
    <path id="Path_112" data-name="Path 112" d="M13.01,315.963a.721.721,0,0,0-.721.721v1.268H7.866a3.79,3.79,0,1,0,0,1.442H13.01a.721.721,0,0,0,.721-.721v-1.989A.721.721,0,0,0,13.01,315.963Zm-8.864,5.058a2.348,2.348,0,1,1,2.345-2.413c0,.021,0,.043,0,.065s0,.044,0,.065A2.349,2.349,0,0,1,4.146,321.021Z" transform="translate(0 -277.043)" fill="#04aa6d"/>
    <circle id="Ellipse_15" data-name="Ellipse 15" cx="0.857" cy="0.857" r="0.857" transform="translate(11.985 22.65)" fill="#04aa6d"/>
    <path id="Path_113" data-name="Path 113" d="M13.01,124.995H7.866a3.79,3.79,0,1,0,0,1.442h4.423V127.7a.721.721,0,1,0,1.442,0v-1.989A.721.721,0,0,0,13.01,124.995Zm-8.864,3.069a2.348,2.348,0,1,1,2.348-2.348A2.351,2.351,0,0,1,4.146,128.064Z" transform="translate(0 -107.274)" fill="#04aa6d"/>
    <path id="Path_114" data-name="Path 114" d="M104.9,85.422a59.567,59.567,0,0,0,6.95-5.748.721.721,0,0,0,0-1.022A59.57,59.57,0,0,0,104.9,72.9a46.346,46.346,0,0,0-4.4-2.78v-10.4h5.056a3.171,3.171,0,1,0,0-1.442H99.78a.721.721,0,0,0-.721.721V69.372A19.373,19.373,0,0,0,90.68,67.1a18.621,18.621,0,0,0-7.644,1.924V59a.721.721,0,0,0-.721-.721H76.538a3.171,3.171,0,1,0,0,1.442h5.056V69.73A44.613,44.613,0,0,0,76.455,72.9a59.572,59.572,0,0,0-6.95,5.748.721.721,0,0,0,0,1.022,59.586,59.586,0,0,0,6.95,5.748,44.616,44.616,0,0,0,5.138,3.173V98.6H76.538a3.171,3.171,0,1,0,0,1.442h5.777a.721.721,0,0,0,.721-.721V89.3a18.621,18.621,0,0,0,7.644,1.924,19.375,19.375,0,0,0,8.379-2.272V99.322a.721.721,0,0,0,.721.721h5.777a3.171,3.171,0,1,0,0-1.442H100.5V88.2A46.346,46.346,0,0,0,104.9,85.422ZM71.058,79.162a57.458,57.458,0,0,1,9.962-7.468A12.035,12.035,0,0,0,81.8,87.062,56.275,56.275,0,0,1,71.058,79.162Zm28.5,7.9a12.016,12.016,0,0,0,3.186-8.159.721.721,0,1,0-1.442,0,10.62,10.62,0,1,1-21.241,0,10.429,10.429,0,0,1,1.674-5.545,16.879,16.879,0,0,1,3.544-3.706,15.549,15.549,0,0,1,5.4-1.114c7.751,0,17.283,8.435,19.622,10.621A56.176,56.176,0,0,1,99.557,87.066Z" transform="translate(-60.653 -49.117)" fill="#04aa6d"/>
    <circle id="Ellipse_16" data-name="Ellipse 16" cx="0.857" cy="0.857" r="0.857" transform="translate(39.654 25.065)" fill="#04aa6d"/>
    <path id="Path_115" data-name="Path 115" d="M194.477,190.018a7.21,7.21,0,1,0,7.21,7.21A7.218,7.218,0,0,0,194.477,190.018Zm0,9.849a2.639,2.639,0,1,1,2.639-2.639A2.642,2.642,0,0,1,194.477,199.867Z" transform="translate(-164.45 -167.183)" fill="#04aa6d"/>
  </g>
</svg>
