<svg id="breast" xmlns="http://www.w3.org/2000/svg" width="162.04" height="162.04" viewBox="0 0 162.04 162.04">
  <path id="Path_18" data-name="Path 18" d="M169.734,128H34.7a2.7,2.7,0,0,0-2.7,2.7v70.217a2.7,2.7,0,0,0,2.7,2.7h17.73a75.44,75.44,0,0,1-3.64,39.562,2.7,2.7,0,0,0,2.528,3.649h101.8a2.7,2.7,0,0,0,2.528-3.649A75.44,75.44,0,0,1,152,203.619h17.73a2.7,2.7,0,0,0,2.7-2.7V130.7A2.7,2.7,0,0,0,169.734,128ZM55.118,241.428a80.826,80.826,0,0,0,2.809-37.809h88.582a80.825,80.825,0,0,0,2.809,37.809Zm111.916-43.211H153.063l8.1-37.237-5.28-1.145-8.35,38.382H56.9l-8.342-38.382-5.28,1.145,8.1,37.237H37.4V133.4H99.517v17.46l-2.7,1.8V141.552a2.7,2.7,0,0,0-2.7-2.7,28.57,28.57,0,0,0-20.35,8.431A50.029,50.029,0,0,0,59.007,182.91a9.8,9.8,0,0,0,5.7,8.958,9.948,9.948,0,0,0,4.224.948,9.833,9.833,0,0,0,6.309-2.309l2.058-1.712a5.738,5.738,0,0,1,3.678-1.334h4.7a11.162,11.162,0,0,0,11.148-11.143V159.152l5.4-3.605,5.4,3.6v17.114a11.162,11.162,0,0,0,11.148,11.154h4.7a5.752,5.752,0,0,1,3.678,1.331l2.058,1.712a9.836,9.836,0,0,0,6.311,2.309,9.958,9.958,0,0,0,4.218-.945,9.811,9.811,0,0,0,5.7-8.964,50.049,50.049,0,0,0-14.759-35.627,28.584,28.584,0,0,0-20.349-8.429,2.7,2.7,0,0,0-2.7,2.7v11.159l-2.7-1.8V133.4h62.115ZM91.415,144.4v31.914a5.755,5.755,0,0,1-5.747,5.744h-4.7a11.167,11.167,0,0,0-7.141,2.585l-2.055,1.712a4.491,4.491,0,0,1-7.367-3.449A44.671,44.671,0,0,1,77.585,151.1a23.175,23.175,0,0,1,13.83-6.7Zm21.605,31.862V144.358a23.191,23.191,0,0,1,13.83,6.692,44.685,44.685,0,0,1,13.177,31.809,4.491,4.491,0,0,1-7.367,3.451L130.6,184.6a11.19,11.19,0,0,0-7.138-2.582h-4.7A5.753,5.753,0,0,1,113.02,176.266Z" transform="translate(-21.197 -84.789)" fill="#04aa6d"/>
  <path id="Path_19" data-name="Path 19" d="M136.962,18.9H102.625V2.7a2.7,2.7,0,0,0-2.7-2.7H62.115a2.7,2.7,0,0,0-2.7,2.7V18.9H25.078A25.116,25.116,0,0,0,0,43.983V56.714H5.4V43.983A19.715,19.715,0,0,1,25.078,24.306H62.115a2.7,2.7,0,0,0,2.7-2.7V5.4H97.224v16.2a2.7,2.7,0,0,0,2.7,2.7h37.037a19.715,19.715,0,0,1,19.677,19.677V56.714h5.4V43.983A25.116,25.116,0,0,0,136.962,18.9Zm-74.055,54.8-4.61,4.61H51.313v5.4h5.4v5.4h5.4V82.138l4.61-4.61Zm40.837,4.61-4.61-4.61-3.819,3.819,4.61,4.61v6.984h5.4v-5.4h5.4v-5.4Z" transform="translate(0 0)" fill="#04aa6d"/>
</svg>
