<svg id="collaboration" xmlns="http://www.w3.org/2000/svg" width="162.037" height="162.037" viewBox="0 0 162.037 162.037">
  <path id="Path_88" data-name="Path 88" d="M65.219,58.8h47.6a2.613,2.613,0,0,0,2.6-2.892,26.47,26.47,0,0,0-16.9-21.955,14.716,14.716,0,1,0-18.988,0A26.469,26.469,0,0,0,62.621,55.9a2.613,2.613,0,0,0,2.6,2.892Zm23.8-45.568a9.489,9.489,0,1,1-9.49,9.49A9.5,9.5,0,0,1,89.019,13.227Zm0,24.206a21.273,21.273,0,0,1,20.691,16.135H68.328A21.273,21.273,0,0,1,89.019,37.433ZM46.233,39.1l-6.167,1.4a2.614,2.614,0,1,1-1.154-5.1l15.519-3.514a2.613,2.613,0,0,1,3.155,2.975l-2.351,14.2a2.613,2.613,0,1,1-5.157-.853l1.11-6.706a81.7,81.7,0,0,0-23.227,64.525,2.613,2.613,0,1,1-5.205.473A86.979,86.979,0,0,1,46.233,39.1Zm73.6-8.958a2.614,2.614,0,0,1,3.681-.334,86.98,86.98,0,0,1,31.06,64.26l3.373-5.348a2.613,2.613,0,1,1,4.421,2.788l-8.489,13.458a2.614,2.614,0,0,1-4.335.127l-8.381-11.706a2.614,2.614,0,1,1,4.25-3.043l3.957,5.526a81.706,81.706,0,0,0-29.2-62.05,2.613,2.613,0,0,1-.335-3.68ZM86.777,152.692a86.346,86.346,0,0,1-20.241-2.407l4.287,4.641a2.614,2.614,0,0,1-3.838,3.549l-10.8-11.683a2.614,2.614,0,0,1,1-4.221L70.657,137.5A2.614,2.614,0,1,1,72.5,142.4l-6.37,2.395a81.4,81.4,0,0,0,52.781-3.929,2.613,2.613,0,1,1,2.06,4.8,86.775,86.775,0,0,1-34.191,7.025ZM71.837,75.211A2.614,2.614,0,0,1,74.451,72.6H88.563a2.614,2.614,0,1,1,0,5.227H74.451A2.614,2.614,0,0,1,71.837,75.211Zm-13.119,0A2.614,2.614,0,0,1,61.332,72.6h4.182a2.614,2.614,0,1,1,0,5.227H61.332A2.614,2.614,0,0,1,58.718,75.211Zm24.626,48.041H106.61l9.78,10.181a2.614,2.614,0,0,0,4.5-1.811v-8.37h1.949a8.015,8.015,0,0,0,8.006-8.005V88.222a8.015,8.015,0,0,0-8.006-8.006H102.7V71.41A8.015,8.015,0,0,0,94.694,63.4H55.2A8.015,8.015,0,0,0,47.2,71.41V98.434a8.015,8.015,0,0,0,8.005,8.006H57.15v8.37a2.614,2.614,0,0,0,4.5,1.811l9.78-10.181h3.91v8.807a8.015,8.015,0,0,0,8.006,8.006Zm39.493-37.808a2.782,2.782,0,0,1,2.778,2.778v27.024a2.782,2.782,0,0,1-2.778,2.778h-4.563a2.614,2.614,0,0,0-2.614,2.614v4.491l-6.053-6.3a2.614,2.614,0,0,0-1.885-.8H83.345a2.782,2.782,0,0,1-2.778-2.778V88.222a2.781,2.781,0,0,1,2.778-2.778ZM70.315,101.212a2.614,2.614,0,0,0-1.885.8l-6.053,6.3v-4.491a2.614,2.614,0,0,0-2.614-2.613H55.2a2.782,2.782,0,0,1-2.778-2.778V71.41A2.782,2.782,0,0,1,55.2,68.631H94.694a2.782,2.782,0,0,1,2.778,2.778v8.807H83.345a7.974,7.974,0,0,0-5.39,2.092H61.332a2.614,2.614,0,0,0,0,5.227H75.37q-.03.342-.031.686v3.8H61.332a2.614,2.614,0,1,0,0,5.227H75.339v3.966Zm30.308-9.19a2.614,2.614,0,0,1,2.614-2.614h13.469a2.614,2.614,0,0,1,0,5.227H103.237A2.614,2.614,0,0,1,100.624,92.022Zm-13.762,9.711a2.614,2.614,0,0,1,2.614-2.614h27.231a2.614,2.614,0,0,1,0,5.227H89.475A2.614,2.614,0,0,1,86.862,101.734Zm0,9.711a2.614,2.614,0,0,1,2.614-2.614h27.231a2.614,2.614,0,0,1,0,5.227H89.475A2.614,2.614,0,0,1,86.862,111.445Zm0-19.423a2.614,2.614,0,0,1,2.614-2.614H94.3a2.614,2.614,0,1,1,0,5.227H89.475A2.614,2.614,0,0,1,86.862,92.022ZM43.908,145.191a14.716,14.716,0,1,0-18.989,0,26.469,26.469,0,0,0-16.9,21.955,2.614,2.614,0,0,0,2.6,2.892h47.6a2.612,2.612,0,0,0,2.6-2.892,26.469,26.469,0,0,0-16.9-21.955Zm-9.494-20.721a9.489,9.489,0,0,1,.007,18.979h-.013a9.489,9.489,0,0,1,.007-18.979ZM13.723,164.81a21.272,21.272,0,0,1,20.684-16.135h.014A21.273,21.273,0,0,1,55.1,164.81Zm156.3,2.335a26.469,26.469,0,0,0-16.9-21.955,14.717,14.717,0,1,0-18.988,0,26.468,26.468,0,0,0-16.9,21.955,2.613,2.613,0,0,0,2.6,2.892h47.6a2.613,2.613,0,0,0,2.6-2.892Zm-26.4-42.676a9.489,9.489,0,0,1,.007,18.979h-.013a9.489,9.489,0,0,1,.007-18.979ZM122.933,164.81a21.272,21.272,0,0,1,20.685-16.135h.014a21.273,21.273,0,0,1,20.684,16.135Z" transform="translate(-8.001 -8)" fill="#04aa6d"/>
</svg>
