<svg id="meeting" xmlns="http://www.w3.org/2000/svg" width="162.04" height="162.04" viewBox="0 0 162.04 162.04">
  <path id="Path_66" data-name="Path 66" d="M153.775,37.71a23.3,23.3,0,0,0,1.424-7.961C155.2,13.9,138.786,1,118.61,1S82.02,13.9,82.02,29.749A23.3,23.3,0,0,0,83.4,37.59H11.454A10.454,10.454,0,0,0,1,48.044v81.02a10.454,10.454,0,0,0,10.454,10.454H65.6L64.3,144.745H58.5a7.841,7.841,0,0,0-7.841,7.841v7.841a2.614,2.614,0,0,0,2.614,2.614h57.5a2.614,2.614,0,0,0,2.614-2.614v-7.841a7.841,7.841,0,0,0-7.841-7.841h-5.8l-1.307-5.227h54.15a10.454,10.454,0,0,0,10.454-10.454V48.044A10.433,10.433,0,0,0,153.775,37.71Zm-1.189,5.107a5.227,5.227,0,0,1,5.227,5.227V79.406H110.769V57.787c.238.039.468.1.708.133l4.793,9.586a2.614,2.614,0,0,0,4.678,0l4.793-9.586a36.477,36.477,0,0,0,25.474-15.1Zm-23.522,57.5a5.227,5.227,0,1,1,5.227,5.227A5.227,5.227,0,0,1,129.064,100.315Zm5.227,10.454a10.454,10.454,0,0,1,10.454,10.454H123.837A10.454,10.454,0,0,1,134.291,110.769Zm7.561-3.275a10.454,10.454,0,1,0-15.122,0,15.681,15.681,0,0,0-8.12,13.729h-7.841V84.634h47.044v36.59h-7.841a15.681,15.681,0,0,0-8.12-13.729Zm-65.059-7.179a5.227,5.227,0,1,1,5.227,5.227A5.227,5.227,0,0,1,76.793,100.315Zm5.227,10.454a10.454,10.454,0,0,1,10.454,10.454H71.566A10.454,10.454,0,0,1,82.02,110.769Zm7.561-3.275a10.454,10.454,0,1,0-15.122,0,15.681,15.681,0,0,0-8.12,13.729H58.5V84.634h47.044v36.59H97.7A15.681,15.681,0,0,0,89.581,107.494Zm-65.059-7.179a5.227,5.227,0,1,1,5.227,5.227A5.227,5.227,0,0,1,24.522,100.315Zm5.227,10.454A10.454,10.454,0,0,1,40.2,121.223H19.295a10.454,10.454,0,0,1,10.454-10.454Zm7.561-3.275a10.454,10.454,0,1,0-15.122,0,15.681,15.681,0,0,0-8.12,13.729H6.227V84.634H53.271v36.59H45.43a15.681,15.681,0,0,0-8.12-13.729Zm-12.788-49a5.227,5.227,0,1,1,5.227,5.227A5.227,5.227,0,0,1,24.522,58.5Zm5.227,10.454A10.454,10.454,0,0,1,40.2,79.406H19.295A10.454,10.454,0,0,1,29.749,68.952ZM76.793,58.5a5.227,5.227,0,1,1,5.227,5.227A5.227,5.227,0,0,1,76.793,58.5ZM82.02,68.952A10.454,10.454,0,0,1,92.474,79.406H71.566A10.454,10.454,0,0,1,82.02,68.952ZM118.61,6.227c17.294,0,31.363,10.551,31.363,23.522,0,11.369-11.3,21.332-26.274,23.18a2.614,2.614,0,0,0-2.018,1.424l-3.071,6.142-3.071-6.142a2.614,2.614,0,0,0-2.018-1.424c-14.978-1.848-26.274-11.811-26.274-23.18C87.247,16.778,101.316,6.227,118.61,6.227Zm-13.068,50.36V79.406H97.7a15.681,15.681,0,0,0-8.12-13.729,10.454,10.454,0,1,0-15.122,0,15.681,15.681,0,0,0-8.12,13.729H58.5V42.817H86a34.629,34.629,0,0,0,19.539,13.771ZM11.454,42.817H53.271v36.59H45.43a15.681,15.681,0,0,0-8.12-13.729,10.454,10.454,0,1,0-15.122,0,15.681,15.681,0,0,0-8.12,13.729H6.227V48.044a5.227,5.227,0,0,1,5.227-5.227Zm96.7,109.769v5.227H55.885v-5.227a2.614,2.614,0,0,1,2.614-2.614h47.044A2.614,2.614,0,0,1,108.155,152.586Zm-13.8-7.841H69.687l1.307-5.227H93.047Zm58.232-10.454H11.454a5.227,5.227,0,0,1-5.227-5.227V126.45H157.813v2.614A5.227,5.227,0,0,1,152.586,134.291Z" transform="translate(-1 -1)" fill="#04aa6d"/>
  <path id="Path_67" data-name="Path 67" d="M39,11h5.227v5.227H39Zm10.454,0h5.227v5.227H49.454Zm10.454,0h5.227v5.227H59.908Zm10.454,0H75.59v5.227H70.363Z" transform="translate(60.315 15.135)" fill="#04aa6d"/>
</svg>
