<svg xmlns="http://www.w3.org/2000/svg" width="162.04" height="162.04" viewBox="0 0 162.04 162.04">
  <g id="report" transform="translate(25 40)">
    <path id="Path_3" data-name="Path 3" d="M150.664,21.344H121.377V18.481a3.165,3.165,0,0,0-.927-2.238L105.134.927A3.166,3.166,0,0,0,102.9,0H43.828a3.165,3.165,0,0,0-3.165,3.165V21.344H14.343A14.36,14.36,0,0,0,0,35.687V125.07a14.36,14.36,0,0,0,14.343,14.343H58.789a54.607,54.607,0,0,1-.935,16.3H40.023a3.165,3.165,0,1,0,0,6.33h82a3.165,3.165,0,1,0,0-6.33H104.013a52.383,52.383,0,0,1-1.114-16.3h44.8A14.36,14.36,0,0,0,162.04,125.07V32.722a11.39,11.39,0,0,0-11.376-11.378Zm-44.6-10.539,4.51,4.51h-4.51ZM46.993,6.33H99.731V18.481a3.165,3.165,0,0,0,3.165,3.165h12.151V94.192H46.993ZM14.343,27.674h26.32V97.356a3.165,3.165,0,0,0,3.165,3.165h74.384a3.165,3.165,0,0,0,3.165-3.165V27.674h29.287a5.053,5.053,0,0,1,5.046,5.048v78.126H6.33V35.687A8.023,8.023,0,0,1,14.343,27.674Zm83.21,128.037H64.3a61.3,61.3,0,0,0,.859-16.3H96.536A58.95,58.95,0,0,0,97.553,155.711ZM147.7,133.084H14.343A8.023,8.023,0,0,1,6.33,125.07v-7.892H155.711v7.892A8.023,8.023,0,0,1,147.7,133.084ZM103.341,84.225a3.165,3.165,0,0,1-3.165,3.165H61.865a3.165,3.165,0,0,1,0-6.33h38.311A3.165,3.165,0,0,1,103.341,84.225Zm0-23.3a3.165,3.165,0,0,1-3.165,3.165H61.865a3.165,3.165,0,0,1,0-6.33h38.311A3.165,3.165,0,0,1,103.341,60.921Zm0,11.652a3.165,3.165,0,0,1-3.165,3.165H61.865a3.165,3.165,0,0,1,0-6.33h38.311A3.165,3.165,0,0,1,103.341,72.573ZM66.259,41.736h5.7v5.7A3.165,3.165,0,0,0,75.125,50.6h11.79a3.165,3.165,0,0,0,3.165-3.165v-5.7h5.7a3.165,3.165,0,0,0,3.165-3.165V26.781a3.165,3.165,0,0,0-3.165-3.165h-5.7v-5.7a3.165,3.165,0,0,0-3.165-3.165H75.125a3.165,3.165,0,0,0-3.165,3.165v5.7h-5.7a3.165,3.165,0,0,0-3.165,3.165v11.79A3.165,3.165,0,0,0,66.259,41.736Zm3.165-11.79h5.7a3.165,3.165,0,0,0,3.165-3.165v-5.7h5.46v5.7a3.165,3.165,0,0,0,3.165,3.165h5.7v5.46h-5.7a3.165,3.165,0,0,0-3.165,3.165v5.7H78.29v-5.7a3.165,3.165,0,0,0-3.165-3.165h-5.7Z" transform="translate(-25 -40)" fill="#04aa6d"/>
  </g>
</svg>
