<svg id="time-saving" xmlns="http://www.w3.org/2000/svg" width="162.037" height="162.038" viewBox="0 0 162.037 162.038">
  <path id="Path_87" data-name="Path 87" d="M162.03,105.741l-1.413-49.859c-.134-4.735-4.853-8.977-9.943-8.977h-.147c-2.489.04-10.607,1.4-10.547,17.173l.1,27.084a12.816,12.816,0,0,1-.272,2.726,9.154,9.154,0,0,0-1.131-1.374,9.323,9.323,0,0,0-12.839-.09,2.482,2.482,0,0,0-.238.245,116.876,116.876,0,0,1-14.1,13.37c-1.51,1.272-2.935,2.474-4.1,3.527-4.814,4.338-5.455,10.35-5.448,15.66l.049,34.281a2.532,2.532,0,0,0,2.532,2.528h27.642a2.533,2.533,0,0,0,2.532-2.532v-18.28l21.81-21.81a18.209,18.209,0,0,0,5.506-13.673Zm-31.639,32.645a2.532,2.532,0,0,0-.742,1.79v16.8H107.068l-.046-31.753c-.006-4.4.447-8.892,3.774-11.891,1.105-1,2.435-2.117,3.976-3.415a121.843,121.843,0,0,0,14.576-13.827,4.2,4.2,0,0,1,5.753.011,4.09,4.09,0,0,1,.594,5.022l-.683.841-17.3,17.3a2.532,2.532,0,0,0,3.581,3.58l16.81-16.81c.4-.4.806-.789,1.165-1.224.57-.69,1.1-1.415,1.669-2.111a17.616,17.616,0,0,0,4.21-11.55l-.1-27.084c-.028-7.515,2.051-12.035,5.564-12.091,2.4-.034,4.889,2.009,4.947,4.056l1.413,49.858a13.089,13.089,0,0,1-4.025,9.95ZM54.633,109.569c-1.168-1.053-2.594-2.254-4.1-3.527a116.878,116.878,0,0,1-14.1-13.37,2.484,2.484,0,0,0-.238-.245,9.323,9.323,0,0,0-12.839.09,9.169,9.169,0,0,0-1.131,1.374,12.813,12.813,0,0,1-.271-2.726l.1-27.084C22.118,48.3,14,46.948,11.511,46.908h-.147c-5.089,0-9.809,4.242-9.943,8.977L.009,105.743a18.211,18.211,0,0,0,5.506,13.673l21.811,21.811v18.28a2.532,2.532,0,0,0,2.532,2.532H57.5a2.532,2.532,0,0,0,2.532-2.528l.049-34.281C60.088,119.919,59.447,113.907,54.633,109.569Zm.338,47.4H32.389v-16.8a2.532,2.532,0,0,0-.742-1.79L9.1,115.835a13.089,13.089,0,0,1-4.025-9.949L6.483,56.027C6.541,54,8.992,51.97,11.364,51.97h.066c3.513.056,5.593,4.576,5.564,12.091l-.1,27.084A17.616,17.616,0,0,0,21.1,102.7c.554.682,1.079,1.388,1.634,2.068.423.518.914.979,1.386,1.452l16.624,16.625a2.532,2.532,0,0,0,3.581-3.58l-17.3-17.3-.68-.837a4.112,4.112,0,0,1,.591-5.025,4.2,4.2,0,0,1,5.753-.011,121.844,121.844,0,0,0,14.576,13.827c1.54,1.3,2.87,2.419,3.976,3.415,3.327,3,3.78,7.488,3.774,11.891ZM81.02,9.687a37.152,37.152,0,1,0,37.152,37.152A37.194,37.194,0,0,0,81.02,9.687ZM99.2,73.265,98.41,71.9a2.532,2.532,0,0,0-4.385,2.532l.795,1.376a31.844,31.844,0,0,1-11.268,3.023V77.235a2.532,2.532,0,1,0-5.064,0v1.593A31.849,31.849,0,0,1,67.22,75.805l.795-1.376A2.532,2.532,0,1,0,63.629,71.9l-.79,1.368a32.351,32.351,0,0,1-8.245-8.245l1.368-.79a2.532,2.532,0,1,0-2.532-4.385l-1.376.795a31.843,31.843,0,0,1-3.023-11.268h1.593a2.532,2.532,0,1,0,0-5.064H49.031A31.843,31.843,0,0,1,52.054,33.04l1.376.795a2.532,2.532,0,0,0,2.532-4.385l-1.368-.79a32.341,32.341,0,0,1,8.245-8.245l.79,1.368a2.532,2.532,0,0,0,4.386-2.532l-.795-1.376a31.836,31.836,0,0,1,11.268-3.023v1.593a2.532,2.532,0,0,0,5.064,0V14.851a31.843,31.843,0,0,1,11.268,3.023l-.795,1.376a2.532,2.532,0,0,0,4.385,2.532l.79-1.368a32.346,32.346,0,0,1,8.246,8.245l-1.368.79a2.532,2.532,0,1,0,2.531,4.385l1.377-.795a31.843,31.843,0,0,1,3.023,11.268h-1.593a2.532,2.532,0,1,0,0,5.064h1.593a31.843,31.843,0,0,1-3.023,11.268l-1.376-.795a2.532,2.532,0,0,0-2.532,4.385l1.368.79A32.352,32.352,0,0,1,99.2,73.265ZM96.6,52.909l-8.37-4.832a7.305,7.305,0,0,0-4.675-8.1V24.82a2.532,2.532,0,1,0-5.064,0V39.977a7.313,7.313,0,1,0,7.2,12.483l8.372,4.834A2.532,2.532,0,0,0,96.6,52.909ZM81.02,49.089a2.25,2.25,0,1,1,2.25-2.25A2.253,2.253,0,0,1,81.02,49.089Zm46.839-2.25A46.839,46.839,0,1,0,81.02,93.678,46.892,46.892,0,0,0,127.859,46.839ZM81.02,88.614a41.775,41.775,0,1,1,41.775-41.775A41.823,41.823,0,0,1,81.02,88.614Z" transform="translate(-0.001)" fill="#04aa6d"/>
</svg>
