<svg id="x-ray" xmlns="http://www.w3.org/2000/svg" width="162.037" height="162.037" viewBox="0 0 162.037 162.037">
  <path id="Path_20" data-name="Path 20" d="M3136.191,1609.994H3131.5a7.5,7.5,0,0,1-7.5-7.5v-5.605a1.891,1.891,0,1,1,3.783,0v5.605a3.71,3.71,0,0,0,3.714,3.691h4.694a3.71,3.71,0,0,0,3.714-3.691v-5.605A1.887,1.887,0,0,1,3141.8,1595a1.906,1.906,0,0,1,1.914,1.891v5.605A7.522,7.522,0,0,1,3136.191,1609.994Zm0,17.933H3131.5a7.488,7.488,0,0,1-7.5-7.5v-5.605a1.891,1.891,0,1,1,3.783,0v5.605a3.714,3.714,0,0,0,3.714,3.714h4.694a3.714,3.714,0,0,0,3.714-3.714v-5.605a1.887,1.887,0,0,1,1.892-1.891,1.906,1.906,0,0,1,1.914,1.891v5.605A7.508,7.508,0,0,1,3136.191,1627.927Zm0,17.2H3131.5a7.488,7.488,0,0,1-7.5-7.5v-5.583a1.892,1.892,0,1,1,3.783,0v5.583a3.715,3.715,0,0,0,3.714,3.714h4.694a3.715,3.715,0,0,0,3.714-3.714v-5.583a1.906,1.906,0,0,1,1.892-1.914,1.925,1.925,0,0,1,1.914,1.914v5.583A7.508,7.508,0,0,1,3136.191,1645.131Zm0,17.546H3131.5a7.5,7.5,0,0,1-7.5-7.5v-5.606a1.891,1.891,0,0,1,3.783,0v5.606a3.71,3.71,0,0,0,3.714,3.691h4.694a3.71,3.71,0,0,0,3.714-3.691v-5.606a1.887,1.887,0,0,1,1.892-1.891,1.906,1.906,0,0,1,1.914,1.891v5.606A7.522,7.522,0,0,1,3136.191,1662.677Zm0,17.523H3131.5a7.488,7.488,0,0,1-7.5-7.5V1667.1a1.891,1.891,0,0,1,3.783,0v5.605a3.715,3.715,0,0,0,3.714,3.714h4.694a3.715,3.715,0,0,0,3.714-3.714V1667.1a1.887,1.887,0,0,1,1.892-1.891,1.906,1.906,0,0,1,1.914,1.891v5.605A7.508,7.508,0,0,1,3136.191,1680.2Z" transform="translate(-3052.814 -1558.655)" fill="#04aa6d"/>
  <path id="Path_21" data-name="Path 21" d="M1211.957,1339.7a1.411,1.411,0,0,1-.433-.045,1.874,1.874,0,0,1-1.413-2.279c.114-.57,3.4-14.242,11.3-17.068,3.281-1.185,6.768-.387,10.368,2.347,21.6,16.543,26.068,16.543,47.693,0,3.578-2.734,7.064-3.532,10.368-2.347,7.907,2.826,11.166,16.5,11.3,17.068a1.907,1.907,0,0,1-3.714.866c-.775-3.4-3.919-12.6-8.887-14.356-2.028-.729-4.238-.137-6.768,1.8-11.462,8.75-18.64,13.216-26.159,13.216-7.5,0-14.7-4.466-26.159-13.216-2.529-1.937-4.74-2.529-6.768-1.8-4.968,1.777-8.089,10.96-8.887,14.356A1.9,1.9,0,0,1,1211.957,1339.7Zm12.054-81.053a17.477,17.477,0,0,1-7.155-1.6c-3.806-1.686-4.74-4.17-4.877-5.947-.251-3.646,2.575-7.953,8.614-13.125a84.227,84.227,0,0,1,8.568-6.335,1.9,1.9,0,0,1,2.028,3.213c-6.13,3.851-15.723,11.6-15.427,16,.046.387.137,1.618,2.643,2.734,8.021,3.577,14.31-.98,17.5-6.426a1.9,1.9,0,0,1,3.281,1.914C1235.541,1255.277,1230,1258.65,1224.011,1258.65Zm-7.178,18.116a9.417,9.417,0,0,1-5.2-1.39c-5.947-3.76-4.352-13.444-4.284-13.854a1.9,1.9,0,0,1,2.21-1.527,1.92,1.92,0,0,1,1.549,2.188c-.365,2.1-.615,8,2.552,9.981,2.21,1.39,8.2,2.119,23.539-8.727a1.9,1.9,0,0,1,2.643.433,1.946,1.946,0,0,1-.456,2.666C1229.73,1273.37,1222.279,1276.765,1216.833,1276.765Zm-3.9,15.2q-5.024,0-7.383-2.461c-3.92-4.1-.547-11.052-.41-11.348a1.906,1.906,0,0,1,3.418,1.686c-.046.091-2.324,4.9-.273,7.041,1.436,1.458,7.178,3.783,29.874-6.335a1.9,1.9,0,1,1,1.549,3.464C1227.794,1289.321,1218.93,1291.964,1212.937,1291.964Zm-3.076,18.754a8.132,8.132,0,0,1-4.238-1.071c-4.853-2.94-3.486-10.277-3.418-10.573a1.883,1.883,0,0,1,2.233-1.5,1.906,1.906,0,0,1,1.5,2.21c-.023.068-.889,5.081,1.641,6.608,1.914,1.162,8.591,1.983,29.668-14.834a1.9,1.9,0,1,1,2.37,2.962C1226.016,1305.363,1216.218,1310.718,1209.86,1310.718Zm77.361-52.068c-5.993,0-11.53-3.372-15.153-9.57a1.89,1.89,0,1,1,3.259-1.914c3.213,5.446,9.479,10,17.5,6.426,2.529-1.117,2.621-2.347,2.643-2.734.3-4.17-8.841-11.849-15.4-16a1.894,1.894,0,1,1,2.005-3.213,81.515,81.515,0,0,1,8.568,6.335c6.061,5.2,8.864,9.479,8.613,13.125-.114,1.777-1.071,4.261-4.876,5.947A17.478,17.478,0,0,1,1287.222,1258.65Zm7.178,18.116c-5.423,0-12.875-3.4-22.559-10.231a1.921,1.921,0,0,1-.433-2.666,1.89,1.89,0,0,1,2.643-.433c15.313,10.847,21.306,10.117,23.516,8.727,3.168-1.983,2.94-7.884,2.575-9.981a1.9,1.9,0,0,1,3.737-.661c.068.41,1.686,10.094-4.261,13.854A9.548,9.548,0,0,1,1294.4,1276.765Zm3.9,15.2c-5.993,0-14.857-2.643-26.775-7.953a1.9,1.9,0,1,1,1.549-3.464c22.719,10.14,28.461,7.793,29.874,6.312,1.732-1.8.365-5.765-.251-7.018a1.868,1.868,0,0,1,.843-2.529,1.888,1.888,0,0,1,2.552.843c.137.3,3.532,7.246-.387,11.348C1304.107,1291.144,1301.646,1291.964,1298.3,1291.964Zm3.076,18.754c-6.335,0-16.156-5.355-29.737-16.2a1.9,1.9,0,1,1,2.37-2.962c21.078,16.817,27.754,15.973,29.646,14.834,2.552-1.527,1.663-6.563,1.663-6.608a1.893,1.893,0,0,1,3.714-.729c.068.319,1.436,7.656-3.4,10.6A8.216,8.216,0,0,1,1301.372,1310.718Z" transform="translate(-1174.586 -1203.301)" fill="#04aa6d"/>
  <path id="Path_22" data-name="Path 22" d="M632.943,645.931H603.593a1.891,1.891,0,1,1,0-3.783h29.349a9.209,9.209,0,0,0,9.206-9.206V598.99a1.891,1.891,0,1,1,3.783,0v33.952A12.983,12.983,0,0,1,632.943,645.931Zm-83.6,0H519.988A12.983,12.983,0,0,1,507,632.943V598.99a1.891,1.891,0,1,1,3.783,0v33.952a9.209,9.209,0,0,0,9.206,9.206h29.349a1.891,1.891,0,1,1,0,3.783Zm94.7-99.3a1.887,1.887,0,0,1-1.891-1.891V519.988a9.209,9.209,0,0,0-9.206-9.206H603.593a1.891,1.891,0,0,1,0-3.783h29.349a12.983,12.983,0,0,1,12.988,12.988v24.747A1.887,1.887,0,0,1,644.04,546.626Zm-135.149,0A1.887,1.887,0,0,1,507,544.735V519.988A12.983,12.983,0,0,1,519.988,507h29.349a1.891,1.891,0,0,1,0,3.783H519.988a9.21,9.21,0,0,0-9.206,9.206v24.747A1.887,1.887,0,0,1,508.891,546.626Z" transform="translate(-495.447 -495.447)" fill="#04aa6d"/>
  <path id="Path_23" data-name="Path 23" d="M147.157,162.037H14.9A14.9,14.9,0,0,1,0,147.157V14.9A14.908,14.908,0,0,1,14.9,0H147.157a14.9,14.9,0,0,1,14.88,14.9V147.157A14.9,14.9,0,0,1,147.157,162.037ZM14.9,3.805a11.1,11.1,0,0,0-11.1,11.1V147.157a11.091,11.091,0,0,0,11.1,11.074H147.157a11.086,11.086,0,0,0,11.074-11.074V14.9a11.091,11.091,0,0,0-11.074-11.1Z" fill="#04aa6d"/>
</svg>
