<svg xmlns="http://www.w3.org/2000/svg" width="40" height="40.005" viewBox="0 0 40 40.005">
  <path id="Icon_awesome-blog" data-name="Icon awesome-blog" d="M13.455,17.722a1.878,1.878,0,0,0-2.2,1.86v3.938a1.878,1.878,0,0,0,1.3,1.719A3.751,3.751,0,1,1,7.5,28.754V9.377A1.871,1.871,0,0,0,5.626,7.5H1.875A1.871,1.871,0,0,0,0,9.377V28.754A11.254,11.254,0,1,0,13.455,17.722ZM16.331,0A1.258,1.258,0,0,0,15,1.25V3.719a1.237,1.237,0,0,0,1.172,1.242A20.068,20.068,0,0,1,35,23.832,1.248,1.248,0,0,0,36.24,25h2.508A1.258,1.258,0,0,0,40,23.676,25.064,25.064,0,0,0,16.331,0Zm.023,7.5A1.261,1.261,0,0,0,15,8.759v2.508a1.246,1.246,0,0,0,1.156,1.242A12.48,12.48,0,0,1,27.481,23.855,1.256,1.256,0,0,0,28.723,25h2.516A1.265,1.265,0,0,0,32.5,23.652,17.58,17.58,0,0,0,16.354,7.5Z" transform="translate(0 0.002)" fill="#04aa6d"/>
</svg>
