<svg xmlns="http://www.w3.org/2000/svg" width="35" height="40" viewBox="0 0 35 40">
  <path id="Icon_awesome-calendar-check" data-name="Icon awesome-calendar-check" d="M34.063,12.5H.938A.938.938,0,0,1,0,11.563V8.75A3.75,3.75,0,0,1,3.75,5H7.5V.938A.938.938,0,0,1,8.438,0h3.125A.938.938,0,0,1,12.5.938V5h10V.938A.938.938,0,0,1,23.438,0h3.125A.938.938,0,0,1,27.5.938V5h3.75A3.75,3.75,0,0,1,35,8.75v2.813A.938.938,0,0,1,34.063,12.5ZM.938,15H34.063a.938.938,0,0,1,.938.938V36.25A3.75,3.75,0,0,1,31.25,40H3.75A3.75,3.75,0,0,1,0,36.25V15.938A.938.938,0,0,1,.938,15Zm26.039,7.5-2.2-2.219a.937.937,0,0,0-1.326-.005l-8.284,8.218-3.592-3.621a.938.938,0,0,0-1.326-.005l-2.219,2.2a.937.937,0,0,0-.005,1.326l6.453,6.505A.937.937,0,0,0,15.8,34.9L26.971,23.822a.937.937,0,0,0,.005-1.326Z" fill="#04aa6d"/>
</svg>
