<svg xmlns="http://www.w3.org/2000/svg" width="40" height="30" viewBox="0 0 40 30">
  <path id="Icon_awesome-envelope" data-name="Icon awesome-envelope" d="M39.242,14.406a.47.47,0,0,1,.758.367V30.75a3.751,3.751,0,0,1-3.75,3.75H3.75A3.751,3.751,0,0,1,0,30.75V14.781a.467.467,0,0,1,.758-.367c1.75,1.359,4.07,3.086,12.039,8.875,1.648,1.2,4.43,3.734,7.2,3.719,2.789.023,5.625-2.562,7.211-3.719C35.18,17.5,37.492,15.766,39.242,14.406ZM20,24.5c1.813.031,4.422-2.281,5.734-3.234,10.367-7.523,11.156-8.18,13.547-10.055A1.87,1.87,0,0,0,40,9.734V8.25A3.751,3.751,0,0,0,36.25,4.5H3.75A3.751,3.751,0,0,0,0,8.25V9.734a1.881,1.881,0,0,0,.719,1.477c2.391,1.867,3.18,2.531,13.547,10.055C15.578,22.219,18.188,24.531,20,24.5Z" transform="translate(0 -4.5)" fill="#04aa6d"/>
</svg>
