<svg xmlns="http://www.w3.org/2000/svg" width="40" height="31.105" viewBox="0 0 40 31.105">
  <path id="Icon_awesome-home" data-name="Icon awesome-home" d="M19.469,10.323,6.666,20.867v11.38a1.111,1.111,0,0,0,1.111,1.111l7.781-.02a1.111,1.111,0,0,0,1.105-1.111V25.582a1.111,1.111,0,0,1,1.111-1.111h4.444a1.111,1.111,0,0,1,1.111,1.111v6.641a1.111,1.111,0,0,0,1.111,1.114l7.779.022a1.111,1.111,0,0,0,1.111-1.111V20.86l-12.8-10.537A.846.846,0,0,0,19.469,10.323ZM39.691,17.49,33.886,12.7V3.087a.833.833,0,0,0-.833-.833H29.164a.833.833,0,0,0-.833.833V8.129L22.114,3.014a3.333,3.333,0,0,0-4.236,0L.3,17.49A.833.833,0,0,0,.19,18.663l1.771,2.153a.833.833,0,0,0,1.174.113L19.469,7.476a.846.846,0,0,1,1.062,0L36.865,20.929a.833.833,0,0,0,1.174-.111l1.771-2.153a.833.833,0,0,0-.118-1.176Z" transform="translate(0.001 -2.254)" fill="#04aa6d"/>
</svg>
