<svg xmlns="http://www.w3.org/2000/svg" version="1.1" xmlns:xlink="http://www.w3.org/1999/xlink" xmlns:svgjs="http://svgjs.com/svgjs" width="512" height="512" x="0" y="0" viewBox="0 0 480 480" style="enable-background:new 0 0 512 512" xml:space="preserve" class=""><g><path d="M384 192c52.938 0 96-43.063 96-96S436.937 0 384 0c-38.441 0-71.586 22.762-86.902 55.473l-25.707-9.489c.304-1.968.609-3.937.609-5.984 0-22.055-17.945-40-40-40s-40 17.945-40 40 17.945 40 40 40c14.328 0 26.824-7.64 33.887-18.992l25.664 9.472C289.297 78.625 288 87.152 288 96c0 10.48 1.742 20.543 4.863 29.992l-87.984 37.29C188.769 132.823 156.793 112 120 112c-11.922 0-23.297 2.29-33.84 6.273L64.031 71.77C73.671 64.457 80 53 80 40 80 17.945 62.055 0 40 0S0 17.945 0 40s17.945 40 40 40c3.328 0 6.52-.527 9.617-1.305l22.102 46.457C43.23 141.824 24 172.672 24 208c0 33.184 16.93 62.473 42.594 79.719L51.96 314.023C48.152 312.824 44.19 312 40 312c-22.055 0-40 17.945-40 40s17.945 40 40 40 40-17.945 40-40c0-12.113-5.527-22.855-14.055-30.191l14.664-26.36C92.641 300.895 105.953 304 120 304c21.953 0 42.145-7.488 58.336-19.938l31.488 34.641C193.855 335.855 184 358.77 184 384c0 4.895.488 9.664 1.191 14.36l-37.046 8.792C141.77 393.52 128.015 384 112 384c-22.055 0-40 17.945-40 40s17.945 40 40 40 40-17.945 40-40c0-.441-.121-.855-.129-1.297l36.977-8.765C201.457 452.245 237.52 480 280 480c52.938 0 96-43.063 96-96 0-16.414-4.152-31.871-11.45-45.39l46.993-30.555C418.809 315.415 428.871 320 440 320c22.055 0 40-17.945 40-40s-17.945-40-40-40-40 17.945-40 40c0 5.168 1.063 10.078 2.855 14.617l-47.101 30.621A96.534 96.534 0 0 0 320 296.84l39.047-108.246C367.016 190.742 375.359 192 384 192zM232 64c-13.23 0-24-10.77-24-24s10.77-24 24-24 24 10.77 24 24-10.77 24-24 24zM16 40c0-13.23 10.77-24 24-24s24 10.77 24 24-10.77 24-24 24-24-10.77-24-24zm24 336c-13.23 0-24-10.77-24-24s10.77-24 24-24 24 10.77 24 24-10.77 24-24 24zm72 72c-13.23 0-24-10.77-24-24s10.77-24 24-24 24 10.77 24 24-10.77 24-24 24zm328-192c13.23 0 24 10.77 24 24s-10.77 24-24 24-24-10.77-24-24 10.77-24 24-24zm-103.113-95.488C340.457 142.008 356.77 128 376 128h16c19.23 0 35.543 14.008 39.113 32.512C417.88 170.199 401.625 176 384 176s-33.879-5.8-47.113-15.488zM384 112c-13.23 0-24-10.77-24-24s10.77-24 24-24 24 10.77 24 24-10.77 24-24 24zm0-96c44.113 0 80 35.887 80 80 0 20-7.434 38.273-19.617 52.313-5.606-14.762-17.293-26.543-31.856-32.36C419.61 108.734 424 98.88 424 88c0-22.055-17.945-40-40-40s-40 17.945-40 40c0 10.879 4.39 20.734 11.473 27.953-14.563 5.817-26.25 17.598-31.856 32.36C311.434 134.273 304 116 304 96c0-44.113 35.887-80 80-80zM40 208c0-44.113 35.887-80 80-80s80 35.887 80 80c0 20.063-7.48 38.383-19.727 52.441-5.585-14.816-17.296-26.656-31.898-32.488 7.074-7.219 11.465-17.074 11.465-27.953 0-22.055-17.945-40-40-40s-40 17.945-40 40c0 10.879 4.39 20.734 11.472 27.953-14.519 5.79-26.19 17.527-31.816 32.23C47.383 246.16 40 227.946 40 208zm55.84-8c0-13.23 10.77-24 24-24s24 10.77 24 24-10.77 24-24 24-24-10.77-24-24zm-23.086 72.406C76.359 253.953 92.648 240 111.84 240h16c19.265 0 35.61 14.055 39.129 32.617C153.762 282.247 137.559 288 120 288c-17.688 0-33.992-5.84-47.246-15.594zm160 176C236.359 429.953 252.648 416 271.84 416h16c19.265 0 35.61 14.055 39.129 32.617C313.762 458.247 297.559 464 280 464c-17.688 0-33.992-5.84-47.246-15.594zM279.84 400c-13.23 0-24-10.77-24-24s10.77-24 24-24 24 10.77 24 24-10.77 24-24 24zM360 384c0 20.063-7.48 38.383-19.727 52.441-5.586-14.816-17.296-26.656-31.898-32.488 7.074-7.219 11.465-17.074 11.465-27.953 0-22.055-17.945-40-40-40s-40 17.945-40 40c0 10.879 4.39 20.734 11.472 27.953-14.519 5.79-26.19 17.527-31.816 32.23C207.383 422.16 200 403.946 200 384c0-44.113 35.887-80 80-80s80 35.887 80 80zm-55.047-92.594C296.984 289.258 288.641 288 280 288c-21.953 0-42.145 7.488-58.336 19.938l-31.488-34.641C206.145 256.145 216 233.23 216 208c0-10.48-1.742-20.543-4.863-29.992l87.984-37.29c9.856 18.634 25.672 33.587 44.887 42.442zm0 0" fill="#04AA6D" data-original="#000000" class=""></path></g></svg>